<svg width="28" height="27" fill="none" xmlns="http://www.w3.org/2000/svg"><path d="M14 21.825 6.13 26.23a.5.5 0 0 1-.735-.533l1.758-8.847L.53 10.726a.5.5 0 0 1 .28-.864L9.768 8.8 13.546.61a.5.5 0 0 1 .908 0l3.779 8.19 8.957 1.062a.5.5 0 0 1 .28.864l-6.622 6.124 1.757 8.847a.5.5 0 0 1-.735.534L14 21.825Z"/><path d="M14 21.825 6.13 26.23a.5.5 0 0 1-.735-.533l1.758-8.847L.53 10.726a.5.5 0 0 1 .28-.864L9.768 8.8 13.546.61a.5.5 0 0 1 .908 0l3.779 8.19 8.957 1.062a.5.5 0 0 1 .28.864l-6.622 6.124 1.757 8.847a.5.5 0 0 1-.735.534L14 21.825Z" stroke="#52B480"/></svg>